<svg xmlns="http://www.w3.org/2000/svg" width="24" height="24" viewBox="0 0 24 24">
    <path fill="white" fill-rule="evenodd" d="M17.3340651,12.731828 L9.77730726,12.7126274 C9.34801231,12.7126274 9,12.3729741 9,11.9539905 C9,11.535007 9.34801231,11.1953537 9.77730726,11.1953537 L17.3581934,11.2145977 L14.3668192,8.29507417 C14.0632618,7.99880804 14.0632618,7.51846573 14.3668192,7.2221996 C14.6703765,6.92593347 15.1625403,6.92593347 15.4660976,7.2221996 L19.772332,11.4250012 C20.0758893,11.7212673 20.0758893,12.2016097 19.772332,12.4978758 L15.3870766,16.7778004 C15.0835192,17.0740665 14.5913555,17.0740665 14.2877981,16.7778004 C13.9842408,16.4815343 13.9842408,16.001192 14.2877981,15.7049258 L17.3340651,12.731828 Z M5.5,18 L9.75,18 C10.1642136,18 10.5,18.3357864 10.5,18.75 C10.5,19.1642136 10.1642136,19.5 9.75,19.5 L4.75,19.5 C4.33578644,19.5 4,19.1642136 4,18.75 L4,5.25 C4,4.83578644 4.33578644,4.5 4.75,4.5 L9.75,4.5 C10.1642136,4.5 10.5,4.83578644 10.5,5.25 C10.5,5.66421356 10.1642136,6 9.75,6 L5.5,6 L5.5,18 Z"/>
</svg>
